<svg xmlns="http://www.w3.org/2000/svg" version="1.1" xmlns:xlink="http://www.w3.org/1999/xlink" xmlns:svgjs="http://svgjs.dev/svgjs" width="2000" height="1500" viewBox="0 0 2000 1500"><rect width="2000" height="1500" fill="#fffff5"></rect><g transform="matrix(0.75,0,0,0.75,247.45144035930866,51.378629032258004)"><svg viewBox="0 0 267 248" data-background-color="#fffff5" preserveAspectRatio="xMidYMid meet" height="1857" width="2000" xmlns="http://www.w3.org/2000/svg" xmlns:xlink="http://www.w3.org/1999/xlink"><g id="tight-bounds" transform="matrix(1,0,0,1,0.4536436160430526,0.4000000000000057)"><svg viewBox="0 0 266.0927127679139 247.2" height="247.2" width="266.0927127679139"><g><svg viewBox="0 0 395.52 367.43788652820876" height="247.2" width="266.0927127679139"><g transform="matrix(1,0,0,1,0,248.54472857387935)"><svg viewBox="0 0 395.52 118.89315795432941" height="118.89315795432941" width="395.52"><g id="textblocktransform"><svg viewBox="0 0 395.52 118.89315795432941" height="118.89315795432941" width="395.52" id="textblock"><g><rect width="75.54432" height="7.010972361400123" y="103.9894156000339" fill="#f4de21" data-fill-palette-color="tertiary"></rect><rect width="75.54432" height="7.010972361400123" y="103.9894156000339" x="319.97568" fill="#f4de21" data-fill-palette-color="tertiary"></rect></g><g><svg viewBox="0 0 395.52 77.74331481813296" height="77.74331481813296" width="395.52"><g transform="matrix(1,0,0,1,0,0)"><svg width="395.52" viewBox="3.15 -42.3 279.03000000000003 54.849999999999994" height="77.74331481813296" data-palette-color="#091627"><path d="M16.1 0.85Q8.85 0.85 3.15-1.85L3.15-1.85 3.15-6.45Q8.9-3.4 16.1-3.4L16.1-3.4Q20.25-3.4 22.18-5.15 24.1-6.9 24.1-9.75L24.1-9.75Q24.1-12.45 22.33-13.8 20.55-15.15 17.1-16.15L17.1-16.15 13.7-17.1Q10.8-17.95 8.75-19.05 6.7-20.15 5.33-22.23 3.95-24.3 3.95-27.65L3.95-27.65Q3.95-33 7.08-35.8 10.2-38.6 15.95-38.6L15.95-38.6Q19.3-38.6 21.85-37.98 24.4-37.35 27.15-36.1L27.15-36.1 27.15-31.6Q22.05-34.35 15.95-34.35L15.95-34.35Q12.25-34.35 10.55-32.63 8.85-30.9 8.85-27.9L8.85-27.9Q8.9-25.15 10.53-23.85 12.15-22.55 15.6-21.55L15.6-21.55 19.05-20.6Q22.1-19.75 24.23-18.63 26.35-17.5 27.68-15.38 29-13.25 29-9.85L29-9.85Q28.95-4.9 25.53-2.02 22.1 0.85 16.1 0.85L16.1 0.85ZM48.7-22.95L42.3-22.95 42.3-7.15Q42.3-5.15 42.92-4.42 43.55-3.7 45.25-3.7L45.25-3.7Q46.75-3.7 48.45-4.1L48.45-4.1 48.45 0.15Q46.2 0.65 44.45 0.65L44.45 0.65Q40.65 0.65 39.12-0.9 37.6-2.45 37.6-6.1L37.6-6.1 37.6-22.95 34-22.95 34-27.3 37.6-27.3 37.6-36.8 42.3-36.8 42.3-27.3 48.7-27.3 48.7-22.95ZM73.55-27.65L78.25-27.65 78.25 0 73.55 0 73.55-2.95Q69.45 0.6 65.09 0.6L65.09 0.6Q60 0.6 57.52-2.1 55.05-4.8 55.05-10.95L55.05-10.95 55.05-27.65 59.75-27.65 59.75-10.95Q59.75-7.05 61.07-5.4 62.4-3.75 65.75-3.75L65.75-3.75Q69.65-3.75 73.55-7.15L73.55-7.15 73.55-27.65ZM105.84-42.3L110.54-42.3 110.54 0 105.84 0 105.84-2.5Q101.89 0.85 97.84 0.85L97.84 0.85Q92.24 0.85 88.89-2.9 85.54-6.65 85.54-13.8L85.54-13.8Q85.54-20.95 88.89-24.7 92.24-28.45 97.84-28.45L97.84-28.45Q101.84-28.45 105.84-25.05L105.84-25.05 105.84-42.3ZM98.44-3.5Q102.04-3.5 105.84-6.6L105.84-6.6 105.84-20.95Q102.14-24.05 98.44-24.05L98.44-24.05Q94.49-24.05 92.47-21.45 90.44-18.85 90.44-13.8L90.44-13.8Q90.44-8.75 92.47-6.13 94.49-3.5 98.44-3.5L98.44-3.5ZM137.04-27.65L141.79-27.65 129.54 4.45Q128.24 7.85 127.19 9.5 126.14 11.15 124.72 11.85 123.29 12.55 120.79 12.55L120.79 12.55Q119.34 12.55 117.84 12.15L117.84 12.15 117.84 7.9Q119.14 8.2 120.44 8.2L120.44 8.2Q122.14 8.2 123.12 7.2 124.09 6.2 125.24 3.25L125.24 3.25 126.54-0.1 116.04-27.65 120.94-27.65 128.89-6.25 137.04-27.65ZM158.89 0.85Q151.64 0.85 145.94-1.85L145.94-1.85 145.94-6.45Q151.69-3.4 158.89-3.4L158.89-3.4Q163.04-3.4 164.96-5.15 166.89-6.9 166.89-9.75L166.89-9.75Q166.89-12.45 165.11-13.8 163.34-15.15 159.89-16.15L159.89-16.15 156.49-17.1Q153.59-17.95 151.54-19.05 149.49-20.15 148.11-22.23 146.74-24.3 146.74-27.65L146.74-27.65Q146.74-33 149.86-35.8 152.99-38.6 158.74-38.6L158.74-38.6Q162.09-38.6 164.64-37.98 167.19-37.35 169.94-36.1L169.94-36.1 169.94-31.6Q164.84-34.35 158.74-34.35L158.74-34.35Q155.04-34.35 153.34-32.63 151.64-30.9 151.64-27.9L151.64-27.9Q151.69-25.15 153.31-23.85 154.94-22.55 158.39-21.55L158.39-21.55 161.84-20.6Q164.89-19.75 167.01-18.63 169.14-17.5 170.46-15.38 171.79-13.25 171.79-9.85L171.79-9.85Q171.74-4.9 168.31-2.02 164.89 0.85 158.89 0.85L158.89 0.85ZM192.14-28.45Q197.74-28.45 201.06-24.7 204.39-20.95 204.39-13.8L204.39-13.8Q204.39-6.65 201.06-2.9 197.74 0.85 192.14 0.85L192.14 0.85Q188.09 0.85 184.14-2.5L184.14-2.5 184.14 11.7 179.44 11.7 179.44-27.65 184.14-27.65 184.14-25.05Q188.14-28.45 192.14-28.45L192.14-28.45ZM191.49-3.5Q195.44-3.5 197.49-6.13 199.54-8.75 199.54-13.8L199.54-13.8Q199.54-18.85 197.49-21.45 195.44-24.05 191.49-24.05L191.49-24.05Q187.74-24.05 184.14-20.95L184.14-20.95 184.14-6.6Q187.84-3.5 191.49-3.5L191.49-3.5ZM220.23-27.65Q224.63-27.65 226.93-26.18 229.23-24.7 229.98-22.23 230.73-19.75 230.73-16L230.73-16 230.73 0 226.03 0 226.03-2.75Q224.13-0.95 222.23-0.15 220.33 0.65 218.13 0.65L218.13 0.65Q215.53 0.65 213.43-0.48 211.33-1.6 210.11-3.73 208.88-5.85 208.88-8.75L208.88-8.75Q208.88-13.25 211.68-15.73 214.48-18.2 219.23-18.2L219.23-18.2Q222.98-18.2 225.98-16.55L225.98-16.55Q225.93-19 225.48-20.45 225.03-21.9 223.63-22.68 222.23-23.45 219.48-23.45L219.48-23.45 215.78-23.45 215.78-27.65 220.23-27.65ZM218.78-3.4Q220.48-3.4 222.36-4.2 224.23-5 226.03-6.6L226.03-6.6 226.03-12.9Q223.23-14.3 219.93-14.3L219.93-14.3Q217.28-14.3 215.48-13.03 213.68-11.75 213.68-8.75L213.68-8.75Q213.68-5.95 215.21-4.67 216.73-3.4 218.78-3.4L218.78-3.4ZM251.53-28.25L252.68-28.25 252.68-23.85 251.53-23.85Q247.23-23.85 243.18-20.4L243.18-20.4 243.18 0 238.48 0 238.48-27.65 243.18-27.65 243.18-24.55Q247.28-28.25 251.53-28.25L251.53-28.25ZM276.48 0L266.38-12.75 263.38-9.7 263.38 0 258.68 0 258.68-42.3 263.38-42.3 263.38-15.65 274.68-27.3 280.58-27.3 269.58-16 282.18 0 276.48 0Z" opacity="1" transform="matrix(1,0,0,1,0,0)" fill="#091627" class="wordmark-text-0" data-fill-palette-color="primary" id="text-0"></path></svg></g></svg></g><g transform="matrix(1,0,0,1,75.54432,96.09664560713851)"><svg viewBox="0 0 244.43135999999998 22.796512347190887" height="22.796512347190887" width="244.43135999999998"><g transform="matrix(1,0,0,1,8,0)"><svg width="228.43135999999998" viewBox="4.5 -36.2 465.39 46.45" height="22.796512347190887" data-palette-color="#091627"><path d="M23 0L4.5 0 4.5-32.8 8.65-32.8 8.65-3.55 23-3.55 23 0ZM32.5 0L28.4 0 28.4-24.3 32.5-24.3 32.5 0ZM30.5-29.3L30.5-29.3Q29.3-29.3 28.47-30.05 27.65-30.8 27.65-31.95L27.65-31.95Q27.65-33.15 28.47-33.88 29.3-34.6 30.5-34.6L30.5-34.6Q31.7-34.6 32.52-33.88 33.35-33.15 33.35-31.95L33.35-31.95Q33.35-30.8 32.52-30.05 31.7-29.3 30.5-29.3ZM50.74 0L45.95 0 37.2-24.3 41.45-24.3 46.05-10.5Q46.59-8.7 47.17-6.9 47.74-5.1 48.3-3.35L48.3-3.35 48.49-3.35Q49.05-5.1 49.59-6.9 50.14-8.7 50.7-10.5L50.7-10.5 55.3-24.3 59.34-24.3 50.74 0ZM73.69 0.6L73.69 0.6Q71.24 0.6 69.12-0.28 66.99-1.15 65.42-2.78 63.84-4.4 62.94-6.75 62.04-9.1 62.04-12.1L62.04-12.1Q62.04-15.1 62.97-17.48 63.89-19.85 65.42-21.5 66.94-23.15 68.89-24.03 70.84-24.9 72.94-24.9L72.94-24.9Q75.24-24.9 77.07-24.1 78.89-23.3 80.12-21.8 81.34-20.3 81.99-18.2 82.64-16.1 82.64-13.5L82.64-13.5Q82.64-12.85 82.62-12.23 82.59-11.6 82.49-11.15L82.49-11.15 66.09-11.15Q66.34-7.25 68.52-4.98 70.69-2.7 74.19-2.7L74.19-2.7Q75.94-2.7 77.42-3.23 78.89-3.75 80.24-4.6L80.24-4.6 81.69-1.9Q80.09-0.9 78.14-0.15 76.19 0.6 73.69 0.6ZM66.04-14.1L66.04-14.1 79.04-14.1Q79.04-17.8 77.47-19.73 75.89-21.65 73.04-21.65L73.04-21.65Q71.74-21.65 70.57-21.15 69.39-20.65 68.44-19.68 67.49-18.7 66.87-17.3 66.24-15.9 66.04-14.1ZM102.99 0.6L102.99 0.6Q100.64 0.6 99.64-0.8 98.64-2.2 98.64-4.9L98.64-4.9 98.64-35.6 102.74-35.6 102.74-4.6Q102.74-3.6 103.09-3.2 103.44-2.8 103.89-2.8L103.89-2.8Q104.09-2.8 104.26-2.8 104.44-2.8 104.79-2.9L104.79-2.9 105.34 0.2Q104.94 0.4 104.39 0.5 103.84 0.6 102.99 0.6ZM115.49 0L111.39 0 111.39-24.3 115.49-24.3 115.49 0ZM113.49-29.3L113.49-29.3Q112.29-29.3 111.46-30.05 110.64-30.8 110.64-31.95L110.64-31.95Q110.64-33.15 111.46-33.88 112.29-34.6 113.49-34.6L113.49-34.6Q114.69-34.6 115.51-33.88 116.34-33.15 116.34-31.95L116.34-31.95Q116.34-30.8 115.51-30.05 114.69-29.3 113.49-29.3ZM128.48 0L124.38 0 124.38-20.95 121.08-20.95 121.08-24.05 124.38-24.3 124.38-28.15Q124.38-31.9 126.11-34.05 127.83-36.2 131.48-36.2L131.48-36.2Q132.63-36.2 133.66-35.98 134.68-35.75 135.53-35.4L135.53-35.4 134.63-32.25Q133.28-32.85 131.88-32.85L131.88-32.85Q128.48-32.85 128.48-28.15L128.48-28.15 128.48-24.3 133.63-24.3 133.63-20.95 128.48-20.95 128.48 0ZM147.63 0.6L147.63 0.6Q145.18 0.6 143.06-0.28 140.93-1.15 139.36-2.78 137.78-4.4 136.88-6.75 135.98-9.1 135.98-12.1L135.98-12.1Q135.98-15.1 136.91-17.48 137.83-19.85 139.36-21.5 140.88-23.15 142.83-24.03 144.78-24.9 146.88-24.9L146.88-24.9Q149.18-24.9 151-24.1 152.83-23.3 154.06-21.8 155.28-20.3 155.93-18.2 156.58-16.1 156.58-13.5L156.58-13.5Q156.58-12.85 156.56-12.23 156.53-11.6 156.43-11.15L156.43-11.15 140.03-11.15Q140.28-7.25 142.46-4.98 144.63-2.7 148.13-2.7L148.13-2.7Q149.88-2.7 151.36-3.23 152.83-3.75 154.18-4.6L154.18-4.6 155.63-1.9Q154.03-0.9 152.08-0.15 150.13 0.6 147.63 0.6ZM139.98-14.1L139.98-14.1 152.98-14.1Q152.98-17.8 151.41-19.73 149.83-21.65 146.98-21.65L146.98-21.65Q145.68-21.65 144.5-21.15 143.33-20.65 142.38-19.68 141.43-18.7 140.81-17.3 140.18-15.9 139.98-14.1ZM181.23 0L176.43 0 169.68-24.3 173.88-24.3 177.48-10.25Q177.88-8.5 178.23-6.85 178.58-5.2 178.93-3.5L178.93-3.5 179.13-3.5Q179.53-5.2 179.93-6.88 180.33-8.55 180.78-10.25L180.78-10.25 184.53-24.3 188.53-24.3 192.33-10.25Q192.78-8.5 193.2-6.85 193.63-5.2 194.03-3.5L194.03-3.5 194.23-3.5Q194.63-5.2 194.98-6.85 195.33-8.5 195.73-10.25L195.73-10.25 199.28-24.3 203.18-24.3 196.68 0 191.68 0 188.18-13.05Q187.73-14.8 187.35-16.5 186.98-18.2 186.53-20.05L186.53-20.05 186.33-20.05Q185.93-18.2 185.53-16.48 185.13-14.75 184.63-13L184.63-13 181.23 0ZM212.57 0L208.47 0 208.47-24.3 212.57-24.3 212.57 0ZM210.57-29.3L210.57-29.3Q209.37-29.3 208.55-30.05 207.72-30.8 207.72-31.95L207.72-31.95Q207.72-33.15 208.55-33.88 209.37-34.6 210.57-34.6L210.57-34.6Q211.77-34.6 212.6-33.88 213.42-33.15 213.42-31.95L213.42-31.95Q213.42-30.8 212.6-30.05 211.77-29.3 210.57-29.3ZM228.42 0.6L228.42 0.6Q226.47 0.6 225.15 0 223.82-0.6 223-1.65 222.17-2.7 221.82-4.2 221.47-5.7 221.47-7.5L221.47-7.5 221.47-20.95 217.87-20.95 217.87-24.05 221.67-24.3 222.17-31.1 225.62-31.1 225.62-24.3 232.17-24.3 232.17-20.95 225.62-20.95 225.62-7.45Q225.62-5.2 226.45-3.98 227.27-2.75 229.37-2.75L229.37-2.75Q230.02-2.75 230.77-2.95 231.52-3.15 232.12-3.4L232.12-3.4 232.92-0.3Q231.92 0.05 230.75 0.33 229.57 0.6 228.42 0.6ZM241.77 0L237.67 0 237.67-35.6 241.77-35.6 241.77-25.9 241.62-20.9Q243.37-22.55 245.27-23.73 247.17-24.9 249.72-24.9L249.72-24.9Q253.57-24.9 255.34-22.5 257.12-20.1 257.12-15.4L257.12-15.4 257.12 0 253.02 0 253.02-14.85Q253.02-18.3 251.92-19.83 250.82-21.35 248.42-21.35L248.42-21.35Q246.52-21.35 245.07-20.4 243.62-19.45 241.77-17.6L241.77-17.6 241.77 0ZM283.16 0.6L283.16 0.6Q278.56 0.6 275.84-2.7 273.11-6 273.11-12.1L273.11-12.1Q273.11-15.05 273.99-17.43 274.86-19.8 276.31-21.45 277.76-23.1 279.66-24 281.56-24.9 283.66-24.9L283.66-24.9Q285.76-24.9 287.31-24.15 288.86-23.4 290.46-22.1L290.46-22.1 290.26-26.25 290.26-35.6 294.41-35.6 294.41 0 291.01 0 290.66-2.85 290.51-2.85Q289.06-1.45 287.19-0.43 285.31 0.6 283.16 0.6ZM284.06-2.85L284.06-2.85Q285.76-2.85 287.26-3.68 288.76-4.5 290.26-6.2L290.26-6.2 290.26-18.9Q288.71-20.3 287.29-20.88 285.86-21.45 284.36-21.45L284.36-21.45Q282.91-21.45 281.64-20.78 280.36-20.1 279.41-18.88 278.46-17.65 277.91-15.95 277.36-14.25 277.36-12.15L277.36-12.15Q277.36-7.75 279.11-5.3 280.86-2.85 284.06-2.85ZM306.71 0L302.61 0 302.61-24.3 306.71-24.3 306.71 0ZM304.71-29.3L304.71-29.3Q303.51-29.3 302.69-30.05 301.86-30.8 301.86-31.95L301.86-31.95Q301.86-33.15 302.69-33.88 303.51-34.6 304.71-34.6L304.71-34.6Q305.91-34.6 306.74-33.88 307.56-33.15 307.56-31.95L307.56-31.95Q307.56-30.8 306.74-30.05 305.91-29.3 304.71-29.3ZM321.26 0.6L321.26 0.6Q318.66 0.6 316.31-0.35 313.96-1.3 312.21-2.75L312.21-2.75 314.26-5.5Q315.86-4.2 317.53-3.4 319.21-2.6 321.41-2.6L321.41-2.6Q323.81-2.6 325.01-3.7 326.21-4.8 326.21-6.4L326.21-6.4Q326.21-7.35 325.71-8.05 325.21-8.75 324.43-9.28 323.66-9.8 322.66-10.2 321.66-10.6 320.66-11L320.66-11Q319.36-11.45 318.06-12.03 316.76-12.6 315.73-13.43 314.71-14.25 314.06-15.35 313.41-16.45 313.41-18L313.41-18Q313.41-19.45 313.98-20.73 314.56-22 315.63-22.93 316.71-23.85 318.26-24.38 319.81-24.9 321.76-24.9L321.76-24.9Q324.06-24.9 325.98-24.1 327.91-23.3 329.31-22.15L329.31-22.15 327.36-19.55Q326.11-20.5 324.76-21.1 323.41-21.7 321.81-21.7L321.81-21.7Q319.51-21.7 318.43-20.65 317.36-19.6 317.36-18.2L317.36-18.2Q317.36-17.35 317.81-16.73 318.26-16.1 319.01-15.63 319.76-15.15 320.73-14.78 321.71-14.4 322.76-14L322.76-14Q324.06-13.5 325.38-12.95 326.71-12.4 327.76-11.58 328.81-10.75 329.48-9.55 330.16-8.35 330.16-6.65L330.16-6.65Q330.16-5.15 329.58-3.85 329.01-2.55 327.88-1.55 326.76-0.55 325.08 0.03 323.41 0.6 321.26 0.6ZM345.46 0.6L345.46 0.6Q343.06 0.6 340.96-0.25 338.86-1.1 337.33-2.73 335.81-4.35 334.93-6.73 334.06-9.1 334.06-12.1L334.06-12.1Q334.06-15.15 335.01-17.53 335.96-19.9 337.56-21.55 339.16-23.2 341.28-24.05 343.41-24.9 345.76-24.9L345.76-24.9Q348.16-24.9 349.86-24.05 351.56-23.2 352.86-22.05L352.86-22.05 350.76-19.35Q349.71-20.3 348.53-20.9 347.36-21.5 345.91-21.5L345.91-21.5Q344.26-21.5 342.86-20.83 341.46-20.15 340.46-18.9 339.46-17.65 338.88-15.93 338.31-14.2 338.31-12.1L338.31-12.1Q338.31-10 338.86-8.3 339.41-6.6 340.38-5.38 341.36-4.15 342.76-3.48 344.16-2.8 345.81-2.8L345.81-2.8Q347.51-2.8 348.93-3.53 350.36-4.25 351.51-5.25L351.51-5.25 353.31-2.5Q351.66-1.05 349.66-0.23 347.66 0.6 345.46 0.6ZM362.75 0L358.65 0 358.65-24.3 362.75-24.3 362.75 0ZM360.75-29.3L360.75-29.3Q359.55-29.3 358.73-30.05 357.9-30.8 357.9-31.95L357.9-31.95Q357.9-33.15 358.73-33.88 359.55-34.6 360.75-34.6L360.75-34.6Q361.95-34.6 362.78-33.88 363.6-33.15 363.6-31.95L363.6-31.95Q363.6-30.8 362.78-30.05 361.95-29.3 360.75-29.3ZM375.05 10.25L370.95 10.25 370.95-24.3 374.35-24.3 374.7-21.5 374.85-21.5Q376.5-22.9 378.48-23.9 380.45-24.9 382.6-24.9L382.6-24.9Q384.95-24.9 386.75-24.03 388.55-23.15 389.75-21.53 390.95-19.9 391.58-17.63 392.2-15.35 392.2-12.5L392.2-12.5Q392.2-9.4 391.35-6.98 390.5-4.55 389.05-2.85 387.6-1.15 385.7-0.28 383.8 0.6 381.7 0.6L381.7 0.6Q380 0.6 378.33-0.15 376.65-0.9 374.95-2.2L374.95-2.2 375.05 2.05 375.05 10.25ZM381-2.85L381-2.85Q382.5-2.85 383.78-3.53 385.05-4.2 385.98-5.43 386.9-6.65 387.43-8.45 387.95-10.25 387.95-12.5L387.95-12.5Q387.95-14.5 387.6-16.15 387.25-17.8 386.48-18.98 385.7-20.15 384.48-20.8 383.25-21.45 381.55-21.45L381.55-21.45Q380-21.45 378.43-20.6 376.85-19.75 375.05-18.15L375.05-18.15 375.05-5.4Q376.7-4 378.25-3.43 379.8-2.85 381-2.85ZM403.05 0.6L403.05 0.6Q400.7 0.6 399.7-0.8 398.7-2.2 398.7-4.9L398.7-4.9 398.7-35.6 402.8-35.6 402.8-4.6Q402.8-3.6 403.15-3.2 403.5-2.8 403.95-2.8L403.95-2.8Q404.15-2.8 404.32-2.8 404.5-2.8 404.85-2.9L404.85-2.9 405.4 0.2Q405 0.4 404.45 0.5 403.9 0.6 403.05 0.6ZM415.55 0L411.45 0 411.45-24.3 415.55-24.3 415.55 0ZM413.55-29.3L413.55-29.3Q412.35-29.3 411.52-30.05 410.7-30.8 410.7-31.95L410.7-31.95Q410.7-33.15 411.52-33.88 412.35-34.6 413.55-34.6L413.55-34.6Q414.75-34.6 415.57-33.88 416.4-33.15 416.4-31.95L416.4-31.95Q416.4-30.8 415.57-30.05 414.75-29.3 413.55-29.3ZM427.84 0L423.74 0 423.74-24.3 427.14-24.3 427.49-20.8 427.64-20.8Q429.39-22.55 431.32-23.73 433.24-24.9 435.79-24.9L435.79-24.9Q439.64-24.9 441.42-22.5 443.19-20.1 443.19-15.4L443.19-15.4 443.19 0 439.09 0 439.09-14.85Q439.09-18.3 437.99-19.83 436.89-21.35 434.49-21.35L434.49-21.35Q432.59-21.35 431.14-20.4 429.69-19.45 427.84-17.6L427.84-17.6 427.84 0ZM460.94 0.6L460.94 0.6Q458.49 0.6 456.37-0.28 454.24-1.15 452.67-2.78 451.09-4.4 450.19-6.75 449.29-9.1 449.29-12.1L449.29-12.1Q449.29-15.1 450.22-17.48 451.14-19.85 452.67-21.5 454.19-23.15 456.14-24.03 458.09-24.9 460.19-24.9L460.19-24.9Q462.49-24.9 464.32-24.1 466.14-23.3 467.37-21.8 468.59-20.3 469.24-18.2 469.89-16.1 469.89-13.5L469.89-13.5Q469.89-12.85 469.87-12.23 469.84-11.6 469.74-11.15L469.74-11.15 453.34-11.15Q453.59-7.25 455.77-4.98 457.94-2.7 461.44-2.7L461.44-2.7Q463.19-2.7 464.67-3.23 466.14-3.75 467.49-4.6L467.49-4.6 468.94-1.9Q467.34-0.9 465.39-0.15 463.44 0.6 460.94 0.6ZM453.29-14.1L453.29-14.1 466.29-14.1Q466.29-17.8 464.72-19.73 463.14-21.65 460.29-21.65L460.29-21.65Q458.99-21.65 457.82-21.15 456.64-20.65 455.69-19.68 454.74-18.7 454.12-17.3 453.49-15.9 453.29-14.1Z" opacity="1" transform="matrix(1,0,0,1,0,0)" fill="#091627" class="slogan-text-1" data-fill-palette-color="secondary" id="text-1"></path></svg></g></svg></g></svg></g></svg></g><g transform="matrix(1,0,0,1,91.84096650206587,0)"><svg viewBox="0 0 211.83806699586825 211.83806699586825" height="211.83806699586825" width="211.83806699586825"><g><svg></svg></g><g id="icon-0"><svg viewBox="0 0 211.83806699586825 211.83806699586825" height="211.83806699586825" width="211.83806699586825"><g><path d="M0 105.919c0-58.497 47.422-105.919 105.919-105.919 58.497 0 105.919 47.422 105.919 105.919 0 58.497-47.422 105.919-105.919 105.919-58.497 0-105.919-47.422-105.919-105.919zM105.919 204.827c54.625 0 98.908-44.283 98.908-98.908 0-54.625-44.283-98.908-98.908-98.908-54.625 0-98.908 44.283-98.908 98.908 0 54.625 44.283 98.908 98.908 98.908z" data-fill-palette-color="tertiary" fill="#f4de21" stroke="transparent"></path></g><g transform="matrix(1,0,0,1,46.32496944337705,54.5103589932051)"><svg viewBox="0 0 119.18812810911415 102.81734900945804" height="102.81734900945804" width="119.18812810911415"><g><svg xmlns="http://www.w3.org/2000/svg" xmlns:xlink="http://www.w3.org/1999/xlink" version="1.1" x="0" y="0" viewBox="0.507 7.136 98.51299999999999 84.982" enable-background="new 0 0 100 100" xml:space="preserve" height="102.81734900945804" width="119.18812810911415" class="icon-dxe-0" data-fill-palette-color="accent" id="dxe-0"><g fill="#dad603" data-fill-palette-color="accent"><path d="M22.048 42.728L25.829 47.455 38.642 65.239A0.42 0.42 0 0 0 38.849 65.402L23.004 90.852 15.187 44.39zM0.507 55.422A0.9 0.9 0 0 1 0.708 54.928L12.118 40.129A0.635 0.635 0 0 1 12.785 39.889L21.121 41.797C21.362 41.887 21.356 41.907 21.425 41.978L14.778 43.589C14.538 43.65 14.484 43.67 14.343 43.778zM19.537 87.812L15.759 82.927A0.4 0.4 0 0 1 15.694 82.816L18.169 81.769zM21.713 88.462C21.429 88.598 21.039 88.784 20.647 88.749L18.907 81.064C18.842 80.779 18.578 80.646 18.309 80.757L15.982 81.742C16.602 80.805 17.908 79.713 18.311 79.263L13.357 50.91 1.485 55.936A1.1 1.1 0 0 1 1.16 56.018L14.382 44.89zM37.129 61.631L46.048 53.846 39.311 64.665zM39.486 86.967L23.765 92.118C30.733 86.326 39.638 78.907 47.736 72.148zM98.23 86.475L40.604 86.768 49.525 70.742zM99.02 85.784L50.25 70.055A46403 46403 0 0 0 69.246 54.201zM49.038 69.889A0.4 0.4 0 0 0 48.934 70.001 13656 13656 0 0 1 24.16 90.65L46.208 55.246zM60.498 60.363L49.812 69.277 47.014 54.795zM55.514 57.355L47.55 54.066 56.358 55.515zM79.921 8.222C79.813 9.295 74.361 58.34 74.361 58.34L69.605 53.3A0.464 0.464 0 0 0 69.001 53.262L61.246 59.737C61.207 59.702 56.319 57.694 56.319 57.694L63.139 42.826C63.143 42.824 79.249 9.773 79.921 8.222M32.224 7.136C32.33 7.194 32.434 7.285 32.531 7.413L60.976 45.447 56.734 54.694 45.979 52.923A0.9 0.9 0 0 0 45.62 53.027L43.274 55.084zM26.009 46.159L31.351 7.717C31.364 7.633 31.381 7.557 31.407 7.489L42.525 55.736 36.616 60.917z" fill="#dad603" data-fill-palette-color="accent"></path></g></svg></g></svg></g></svg></g></svg></g><g></g></svg></g><defs></defs></svg><rect width="266.0927127679139" height="247.2" fill="none" stroke="none" visibility="hidden"></rect></g></svg></g></svg>